<?xml version="1.0" standalone="no"?><!DOCTYPE svg PUBLIC "-//W3C//DTD SVG 1.1//EN" "http://www.w3.org/Graphics/SVG/1.1/DTD/svg11.dtd"><svg t="1725077973766" class="icon" viewBox="0 0 1027 1024" version="1.1" xmlns="http://www.w3.org/2000/svg" p-id="6696" width="256.75" height="256" xmlns:xlink="http://www.w3.org/1999/xlink"><path d="M1049.6 54.613333" fill="#1296db" p-id="6697"></path><path d="M609.757867 54.613333" fill="#1296db" p-id="6698"></path><path d="M1220.744533 228.693333" p-id="6699" fill="#1296db"></path><path d="M1220.744533 228.693333" p-id="6700" fill="#1296db"></path><path d="M404.39808 465.07008c0 4.287147-16.7936 47.4112-50.377387 129.365333l101.379413 0c-32.48128-81.128107-48.718507-124.25216-48.718507-129.365333L404.39808 465.07008z" p-id="6701" fill="#1296db"></path><path d="M1026.184533 335.568213l-206.158507 0L820.026027 201.652907 617.78944 0l-6.956373 0L73.20576 0l0 335.568213L3.413333 335.568213l0 479.802027 69.792427 0 0 198.47168 746.82368 0 0-198.47168 206.158507 0L1026.187947 335.568213zM733.259093 647.246507c-0.0512 0.63488-0.105813 1.273173-0.170667 1.901227-0.262827 2.56-0.607573 5.05856-1.0752 7.471787-0.09216 0.467627-0.211627 0.91136-0.310613 1.375573-0.426667 1.9968-0.93184 3.93216-1.501867 5.823147-0.201387 0.662187-0.38912 1.338027-0.607573 1.98656-0.689493 2.065067-1.471147 4.061867-2.338133 5.997227-0.32768 0.730453-0.69632 1.4336-1.047893 2.143573-0.669013 1.35168-1.39264 2.665813-2.153813 3.95264-0.43008 0.723627-0.832853 1.467733-1.293653 2.17088-1.030827 1.583787-2.16064 3.099307-3.33824 4.580693-0.669013 0.836267-1.37216 1.64864-2.085547 2.450773-0.75776 0.853333-1.559893 1.675947-2.372267 2.491733-1.297067 1.30048-2.6624 2.54976-4.096 3.754667-0.768 0.64512-1.536 1.29024-2.341547 1.908053-1.058133 0.80896-2.143573 1.59744-3.269973 2.358613-0.689493 0.467627-1.42336 0.904533-2.14016 1.355093-2.048 1.283413-4.191573 2.49856-6.444373 3.6352-0.720213 0.361813-1.440427 0.723627-2.177707 1.071787-1.430187 0.672427-2.87744 1.3312-4.386133 1.9456l0 0c-16.442027 6.703787-37.4784 10.103467-63.249067 10.103467-25.98912 0-49.07008-2.973013-69.249707-8.915627l7.256747-32.549547c23.220907 8.01792 45.267627 12.028587 66.136747 12.028587 28.16 0 47.817387-4.80256 59.10528-14.332587l0 0 0 0c0.935253-0.791893 1.815893-1.614507 2.635093-2.46784 0.017067-0.02048 0.034133-0.037547 0.054613-0.058027 2.297173-2.409813 4.13696-5.075627 5.515947-8.004267 0.119467-0.249173 0.256-0.488107 0.365227-0.740693 0.303787-0.69632 0.559787-1.416533 0.815787-2.14016 0.208213-0.580267 0.406187-1.16736 0.580267-1.764693 0.177493-0.621227 0.344747-1.252693 0.488107-1.8944 0.18432-0.80896 0.32768-1.641813 0.453973-2.481493 0.078507-0.518827 0.170667-1.027413 0.228693-1.559893 0.1536-1.41312 0.249173-2.860373 0.249173-4.358827 0-1.512107-0.098987-2.99008-0.256-4.450987-0.054613-0.525653-0.146773-1.041067-0.221867-1.559893-0.13312-0.904533-0.290133-1.80224-0.484693-2.686293-0.139947-0.64512-0.293547-1.283413-0.467627-1.91488-0.191147-0.699733-0.416427-1.389227-0.64512-2.075307-0.242347-0.72704-0.474453-1.457493-0.761173-2.17088-0.109227-0.273067-0.249173-0.535893-0.365227-0.805547-0.846507-1.97632-1.86368-3.898027-3.048107-5.76512-0.075093-0.119467-0.139947-0.238933-0.218453-0.3584-0.638293-0.98304-1.338027-1.942187-2.06848-2.894507-0.126293-0.16384-0.256-0.331093-0.385707-0.494933-2.57024-3.249493-5.632-6.345387-9.321813-9.239893-8.157867-6.355627-24.190293-14.854827-48.09728-25.4976-25.156267-11.195733-42.78272-21.49376-52.86912-30.890667-13.960533-12.987733-20.937387-29.300053-20.937387-48.92672 0-20.452693 7.1168-37.113173 21.353813-49.964373 15.895893-14.373547 38.355627-21.562027 67.382613-21.562027 15.7184 0 29.044053 0.494933 40.02816 1.47456l0 0c4.461227 0.395947 8.52992 0.873813 12.21632 1.4336 0.044373 0.006827 0.09216 0.013653 0.136533 0.02048 1.143467 0.17408 2.245973 0.3584 3.314347 0.546133 0.095573 0.017067 0.19456 0.034133 0.290133 0.047787 1.000107 0.180907 1.952427 0.36864 2.884267 0.5632 0.14336 0.03072 0.300373 0.058027 0.44032 0.088747 0.86016 0.180907 1.672533 0.375467 2.474667 0.570027 0.187733 0.044373 0.385707 0.088747 0.570027 0.13312 0.768 0.191147 1.491627 0.392533 2.205013 0.597333 0.180907 0.0512 0.375467 0.098987 0.55296 0.150187 0.8704 0.256 1.696427 0.52224 2.47808 0.79872l-4.980053 32.965973c-3.406507-1.0752-6.8608-2.030933-10.335573-2.935467-0.62464-0.160427-1.24928-0.314027-1.877333-0.47104-3.423573-0.853333-6.87104-1.6384-10.36288-2.32448-0.003413 0-0.003413 0-0.006827 0l0 0c-14.24384-2.798933-29.0304-4.222293-44.383573-4.222293-35.525973 0-53.282133 11.88864-53.282133 35.659093 0 11.472213 5.10976 21.080747 15.342933 28.818773 6.63552 4.840107 21.285547 12.161707 43.953493 21.978453 15.342933 6.64576 28.091733 13.093547 38.36928 19.350187l0 0c1.498453 0.91136 2.914987 1.815893 4.31104 2.720427 0.447147 0.290133 0.894293 0.580267 1.3312 0.8704 1.15712 0.764587 2.269867 1.529173 3.351893 2.286933 0.754347 0.53248 1.47456 1.061547 2.19136 1.594027 0.771413 0.570027 1.553067 1.13664 2.276693 1.703253 1.460907 1.140053 2.860373 2.276693 4.143787 3.403093 17.27488 15.2064 25.91744 33.86368 25.91744 55.975253C733.627733 641.8432 733.477547 644.570453 733.259093 647.246507zM610.833067 102.915413l102.915413 100.133547-102.915413 0L610.833067 102.915413zM210.302293 133.50912l341.077333 0 1.041067 138.724693 137.683627 0 0 63.3344L210.302293 335.568213 210.302293 133.50912zM534.80448 708.881067l-43.74528 0c0-9.25696-8.707413-38.352213-26.12224-87.282347l-119.62368 0c-17.14176 48.237227-25.709227 77.33248-25.709227 87.282347L277.725867 708.881067c0-5.113173 17.831253-49.309013 53.490347-132.580693s53.490347-129.058133 53.490347-137.34912l48.09728 0c0 8.157867 17.001813 53.282133 51.002027 135.379627C517.802667 656.42496 534.80448 701.279573 534.80448 708.881067zM197.290667 710.242987c-0.01024 0.003413-0.017067 0.006827-0.027307 0.006827-1.93536 0.505173-3.945813 0.959147-5.98016 1.396053-0.976213 0.208213-1.96608 0.406187-2.966187 0.597333-1.819307 0.351573-3.642027 0.703147-5.536427 1.000107-2.761387 0.43008-5.587627 0.815787-8.50944 1.133227-1.26976 0.139947-2.597547 0.23552-3.894613 0.354987-2.37568 0.211627-4.785493 0.39936-7.26016 0.539307-1.194667 0.068267-2.392747 0.136533-3.611307 0.187733-3.693227 0.1536-7.447893 0.262827-11.35616 0.262827-25.985707 0-49.066667-2.973013-69.24288-8.915627l7.256747-32.549547c23.220907 8.01792 45.264213 12.028587 66.133333 12.028587 3.20512 0 6.27712-0.075093 9.260373-0.197973 0.88064-0.037547 1.71008-0.1024 2.573653-0.150187 2.095787-0.116053 4.160853-0.249173 6.147413-0.426667 0.88064-0.078507 1.727147-0.177493 2.587307-0.269653 1.921707-0.2048 3.795627-0.436907 5.608107-0.70656 0.740693-0.109227 1.471147-0.22528 2.194773-0.34816 1.921707-0.320853 3.775147-0.679253 5.567147-1.0752 0.505173-0.11264 1.020587-0.218453 1.51552-0.334507 2.136747-0.505173 4.17792-1.06496 6.120107-1.682773 0.098987-0.03072 0.2048-0.058027 0.303787-0.088747 6.485333-2.08896 11.854507-4.8128 16.131413-8.15104l0 0 0 0c8.28416-6.464853 12.48256-15.23712 12.48256-26.37824 0-12.11392-5.0176-22.633813-14.946987-31.586987-1.041067-0.96256-2.123093-1.908053-3.29728-2.829653-8.157867-6.355627-24.190293-14.854827-48.09728-25.4976-25.156267-11.195733-42.779307-21.49376-52.86912-30.890667-13.960533-12.987733-20.937387-29.300053-20.937387-48.92672 0-20.452693 7.1168-37.113173 21.353813-49.964373 15.89248-14.373547 38.355627-21.562027 67.3792-21.562027 3.64544 0 7.144107 0.03072 10.533547 0.08192 0.208213 0.003413 0.41984 0.003413 0.628053 0.006827 3.321173 0.054613 6.509227 0.139947 9.58464 0.24576 0.197973 0.006827 0.402773 0.013653 0.600747 0.02048 3.106133 0.11264 6.085973 0.249173 8.93952 0.413013 0.095573 0.006827 0.191147 0.01024 0.28672 0.017067 2.9184 0.170667 5.707093 0.365227 8.359253 0.590507 12.544 1.06496 22.114987 2.74432 28.658347 5.04832l-4.973227 32.965973c-10.881707-3.437227-22.1184-5.963093-33.703253-7.621973-0.651947-0.09216-1.307307-0.16384-1.962667-0.252587-2.6112-0.34816-5.239467-0.658773-7.8848-0.918187-0.986453-0.095573-1.979733-0.18432-2.973013-0.269653-2.433707-0.208213-4.881067-0.372053-7.345493-0.505173-0.979627-0.0512-1.952427-0.116053-2.935467-0.157013-3.362133-0.139947-6.74816-0.228693-10.164907-0.228693-35.52256 0-53.282133 11.88864-53.282133 35.659093 0 11.472213 5.10976 21.080747 15.342933 28.818773 6.632107 4.840107 21.282133 12.161707 43.95008 21.978453 3.549867 1.539413 6.946133 3.065173 10.216107 4.580693 0.638293 0.293547 1.2288 0.587093 1.85344 0.88064 2.70336 1.26976 5.34528 2.536107 7.857493 3.792213 0.436907 0.218453 0.853333 0.436907 1.286827 0.651947 2.70336 1.368747 5.317973 2.727253 7.796053 4.078933 0.180907 0.098987 0.354987 0.19456 0.53248 0.293547 2.706773 1.481387 5.290667 2.955947 7.727787 4.420267l0 0c7.51616 4.509013 13.806933 8.922453 18.701653 13.23008 17.27488 15.2064 25.914027 33.86368 25.914027 55.975253 0 33.027413-14.933333 55.319893-44.619093 67.017387l0 0C206.240427 707.631787 201.90208 709.034667 197.290667 710.242987zM690.10432 880.3328 210.302293 880.3328l0-64.96256 479.802027 0L690.10432 880.3328zM843.922773 715.721387c-8.270507 0-16.213333-0.334507-23.893333-0.938667l0 0c-8.11008-0.63488-15.889067-1.604267-23.354027-2.904747-0.354987-0.06144-0.699733-0.13312-1.051307-0.19456-3.065173-0.549547-6.065493-1.16736-9.018027-1.829547-0.761173-0.170667-1.529173-0.33792-2.28352-0.518827-3.280213-0.77824-6.51264-1.60768-9.649493-2.52928l7.256747-32.549547c3.157333 1.088853 6.28736 2.092373 9.40032 3.034453 0.556373 0.167253 1.10592 0.310613 1.65888 0.474453 2.655573 0.781653 5.29408 1.518933 7.918933 2.19136 0.36864 0.09216 0.730453 0.177493 1.099093 0.269653 2.870613 0.723627 5.717333 1.378987 8.5504 1.969493 0.12288 0.023893 0.24576 0.0512 0.36864 0.075093 3.054933 0.631467 6.085973 1.18784 9.096533 1.66912 0 0 0.003413 0 0.003413 0l0 0c9.567573 1.529173 18.920107 2.341547 28.03712 2.341547 46.99136 0 70.49216-13.27104 70.49216-39.806293 0-13.40416-6.08256-24.879787-18.244267-34.41664-8.157867-6.355627-24.190293-14.854827-48.09728-25.4976-12.629333-5.62176-23.35744-11.014827-32.187733-16.182613-4.379307-2.563413-8.290987-5.0688-11.738453-7.519573-0.034133-0.023893-0.064853-0.047787-0.098987-0.075093-1.682773-1.19808-3.259733-2.38592-4.717227-3.560107-1.491627-1.19808-2.863787-2.38592-4.119893-3.556693-13.963947-12.987733-20.9408-29.300053-20.9408-48.92672 0-20.452693 7.1168-37.113173 21.353813-49.964373 1.764693-1.594027 3.638613-3.068587 5.567147-4.488533 0.63488-0.467627 1.293653-0.907947 1.9456-1.358507 1.36192-0.935253 2.768213-1.826133 4.20864-2.676053 0.75776-0.447147 1.508693-0.907947 2.286933-1.334613 14.247253-7.7824 32.02048-11.70432 53.374293-11.70432 32.894293 0 55.41888 2.143573 67.587413 6.423893l-4.980053 32.965973c-21.009067-6.638933-43.328853-9.95328-66.962773-9.95328-19.75296 0-33.989973 3.689813-42.758827 11.03872l0 0c0 0 0 0 0 0-0.631467 0.529067-1.201493 1.099093-1.774933 1.665707-0.273067 0.269653-0.559787 0.525653-0.8192 0.802133-0.49152 0.525653-0.938667 1.082027-1.3824 1.6384-0.290133 0.361813-0.587093 0.720213-0.856747 1.09568-0.38912 0.535893-0.744107 1.09568-1.092267 1.65888-0.273067 0.44032-0.535893 0.887467-0.785067 1.344853-0.29696 0.549547-0.576853 1.112747-0.83968 1.686187-0.238933 0.52224-0.4608 1.061547-0.669013 1.604267-0.21504 0.55296-0.426667 1.112747-0.610987 1.686187-0.201387 0.628053-0.36864 1.276587-0.53248 1.928533-0.136533 0.535893-0.279893 1.06496-0.392533 1.61792-0.157013 0.78848-0.269653 1.60768-0.375467 2.430293-0.06144 0.464213-0.14336 0.91136-0.187733 1.385813-0.12288 1.32096-0.197973 2.676053-0.197973 4.078933 0 1.31072 0.085333 2.594133 0.218453 3.857067 0.0512 0.48128 0.139947 0.948907 0.208213 1.419947 0.11264 0.74752 0.23552 1.491627 0.395947 2.225493 0.129707 0.600747 0.290133 1.194667 0.453973 1.785173 0.1536 0.546133 0.320853 1.08544 0.50176 1.621333 0.232107 0.689493 0.474453 1.37216 0.754347 2.044587 0.139947 0.334507 0.300373 0.658773 0.45056 0.989867 2.515627 5.546667 6.59456 10.519893 12.356267 14.87872 6.63552 4.840107 21.285547 12.161707 43.953493 21.978453 25.842347 11.19232 44.499627 21.838507 55.975253 31.92832 17.27488 15.2064 25.91744 33.86368 25.91744 55.975253C950.69184 690.152107 915.0976 715.721387 843.922773 715.721387z" p-id="6702" fill="#1296db"></path></svg>